<mxfile host="app.diagrams.net" modified="2024-02-19T09:08:34.840Z" agent="Mozilla/5.0 (Windows NT 10.0; Win64; x64) AppleWebKit/537.36 (KHTML, like Gecko) Chrome/121.0.0.0 Safari/537.36 Edg/121.0.0.0" etag="4awJ4v9K8fZ9BWY3s1nK" version="23.1.4" type="google">
  <diagram name="페이지-1" id="eEeW7p2JSEimYhBjK40R">
    <mxGraphModel dx="1851" dy="1136" grid="1" gridSize="10" guides="1" tooltips="1" connect="1" arrows="1" fold="1" page="1" pageScale="1" pageWidth="827" pageHeight="1169" math="0" shadow="0">
      <root>
        <mxCell id="0" />
        <mxCell id="1" parent="0" />
        <mxCell id="l6PxVcJ_XqyfcJT1N-ba-23" value="" style="shape=ext;double=1;rounded=0;whiteSpace=wrap;html=1;" parent="1" vertex="1">
          <mxGeometry x="-680" y="50" width="370" height="530" as="geometry" />
        </mxCell>
        <mxCell id="l6PxVcJ_XqyfcJT1N-ba-4" value="ELB&lt;br&gt;(ALB)" style="verticalLabelPosition=bottom;verticalAlign=top;html=1;shape=mxgraph.flowchart.or;" parent="1" vertex="1">
          <mxGeometry x="-790" y="260" width="40" height="40" as="geometry" />
        </mxCell>
        <mxCell id="l6PxVcJ_XqyfcJT1N-ba-8" value="RDS" style="shape=image;verticalLabelPosition=bottom;labelBackgroundColor=default;verticalAlign=top;aspect=fixed;imageAspect=0;image=data:image/svg+xml,PHN2ZyB4bWxuczp4bGluaz0iaHR0cDovL3d3dy53My5vcmcvMTk5OS94bGluayIgeG1sbnM9Imh0dHA6Ly93d3cudzMub3JnLzIwMDAvc3ZnIiB2ZXJzaW9uPSIxLjEiIHZpZXdCb3g9IjAgMCAyNCAyNCIgaGVpZ2h0PSIyNHB4IiB3aWR0aD0iMjRweCI+JiN4YTsgICAgJiN4YTsgICAgPHRpdGxlPkljb24tQXJjaGl0ZWN0dXJlLzE2L0FyY2hfQW1hem9uLVJEU18xNjwvdGl0bGU+JiN4YTsgICAgPGRlc2M+Q3JlYXRlZCB3aXRoIFNrZXRjaC48L2Rlc2M+JiN4YTsgICAgPGRlZnM+JiN4YTsgICAgICAgIDxsaW5lYXJHcmFkaWVudCBpZD0ibGluZWFyR3JhZGllbnQtMSIgeTI9IjAlIiB4Mj0iMTAwJSIgeTE9IjEwMCUiIHgxPSIwJSI+JiN4YTsgICAgICAgICAgICA8c3RvcCBvZmZzZXQ9IjAlIiBzdG9wLWNvbG9yPSIjMkUyN0FEIi8+JiN4YTsgICAgICAgICAgICA8c3RvcCBvZmZzZXQ9IjEwMCUiIHN0b3AtY29sb3I9IiM1MjdGRkYiLz4mI3hhOyAgICAgICAgPC9saW5lYXJHcmFkaWVudD4mI3hhOyAgICA8L2RlZnM+JiN4YTsgICAgPGcgZmlsbC1ydWxlPSJldmVub2RkIiBmaWxsPSJub25lIiBzdHJva2Utd2lkdGg9IjEiIHN0cm9rZT0ibm9uZSIgaWQ9Ikljb24tQXJjaGl0ZWN0dXJlLzE2L0FyY2hfQW1hem9uLVJEU18xNiI+JiN4YTsgICAgICAgIDxnIGZpbGw9InVybCgjbGluZWFyR3JhZGllbnQtMSkiIGlkPSJJY29uLUFyY2hpdGVjdHVyZS1CRy8xNi9EYXRhYmFzZSI+JiN4YTsgICAgICAgICAgICA8cmVjdCBoZWlnaHQ9IjI0IiB3aWR0aD0iMjQiIHk9IjAiIHg9IjAiIGlkPSJSZWN0YW5nbGUiLz4mI3hhOyAgICAgICAgPC9nPiYjeGE7ICAgICAgICA8cGF0aCBmaWxsPSIjRkZGRkZGIiBpZD0iQW1hem9uLVJEU19JY29uXzE2X1NxdWlkIiBkPSJNNS43MDcsNSBMNy44NTMsNy4xNDYgTDcuMTQ2LDcuODU0IEw1LDUuNzA3IEw1LDcuNSBMNCw3LjUgTDQsNC41IEM0LDQuMjI0IDQuMjI0LDQgNC41LDQgTDcuNSw0IEw3LjUsNSBMNS43MDcsNSBaIE03Ljg1MywxNi44NTQgTDUuNzA3LDE5IEw3LjUsMTkgTDcuNSwyMCBMNC41LDIwIEM0LjIyNCwyMCA0LDE5Ljc3NiA0LDE5LjUgTDQsMTYuNSBMNSwxNi41IEw1LDE4LjI5MyBMNy4xNDYsMTYuMTQ2IEw3Ljg1MywxNi44NTQgWiBNNSwxMiBDNSwxMi43NSA1Ljk2NiwxMy41NDIgNy41MTksMTQuMDY5IEw3LjE5OSwxNS4wMTYgQzUuMTY2LDE0LjMyOCA0LDEzLjIyOCA0LDEyIEM0LDEwLjc3MiA1LjE2Niw5LjY3MiA3LjE5OSw4Ljk4NCBMNy41MTksOS45MzEgQzUuOTY2LDEwLjQ1OCA1LDExLjI1IDUsMTIgTDUsMTIgWiBNMTksMTYuNSBMMjAsMTYuNSBMMjAsMTkuNSBDMjAsMTkuNzc2IDE5Ljc3NiwyMCAxOS41LDIwIEwxNi41LDIwIEwxNi41LDE5IEwxOC4yOTMsMTkgTDE2LjE0NiwxNi44NTQgTDE2Ljg1MywxNi4xNDYgTDE5LDE4LjI5MyBMMTksMTYuNSBaIE0yMCw0LjUgTDIwLDcuNSBMMTksNy41IEwxOSw1LjcwNyBMMTYuODUzLDcuODU0IEwxNi4xNDYsNy4xNDYgTDE4LjI5Myw1IEwxNi41LDUgTDE2LjUsNCBMMTkuNSw0IEMxOS43NzYsNCAyMCw0LjIyNCAyMCw0LjUgTDIwLDQuNSBaIE0yMCwxMiBDMjAsMTMuMjI4IDE4LjgzNCwxNC4zMjggMTYuODAxLDE1LjAxNiBMMTYuNDgsMTQuMDY5IEMxOC4wMzQsMTMuNTQyIDE5LDEyLjc1IDE5LDEyIEMxOSwxMS4yNSAxOC4wMzQsMTAuNDU4IDE2LjQ4LDkuOTMxIEwxNi44MDEsOC45ODQgQzE4LjgzNCw5LjY3MiAyMCwxMC43NzIgMjAsMTIgTDIwLDEyIFogTTEyLDE1LjQwMiBDMTAuODEsMTUuNDAyIDEwLjA4NywxNS4xMDQgMTAsMTUuMDMyIEwxMCwxMC42NTEgQzEwLjU2NCwxMC44ODYgMTEuMjk0LDExIDEyLDExIEMxMi43MDgsMTEgMTMuNDM5LDEwLjg4NiAxNC4wMDQsMTAuNjUgTDE0LjAyLDE0Ljk1MiBDMTMuOTEzLDE1LjEwNCAxMy4xOSwxNS40MDIgMTIsMTUuNDAyIEwxMiwxNS40MDIgWiBNMTIsOSBDMTMuMTc0LDkgMTMuODU4LDkuMzM2IDEzLjk4Nyw5LjUgQzEzLjg1OCw5LjY2NCAxMy4xNzQsMTAgMTIsMTAgQzEwLjc3MSwxMCAxMC4wOCw5LjYzMiAxMCw5LjUzMSBMMTAsOS41MjEgQzEwLjA4LDkuMzY4IDEwLjc3MSw5IDEyLDkgTDEyLDkgWiBNMTIsOCBDMTAuNTU1LDggOSw4LjQ2OSA5LDkuNSBMOSwxNS4wMzIgQzksMTUuOTc5IDEwLjUwNywxNi40MDIgMTIsMTYuNDAyIEMxMy40OTMsMTYuNDAyIDE1LDE1Ljk3OSAxNSwxNS4wMzIgTDE1LDkuNSBDMTUsOC40NjkgMTMuNDQ1LDggMTIsOCBMMTIsOCBaIi8+JiN4YTsgICAgPC9nPiYjeGE7PC9zdmc+;" parent="1" vertex="1">
          <mxGeometry x="-240" y="371.5" width="72" height="72" as="geometry" />
        </mxCell>
        <mxCell id="l6PxVcJ_XqyfcJT1N-ba-11" value="3S" style="shape=image;verticalLabelPosition=bottom;labelBackgroundColor=default;verticalAlign=top;aspect=fixed;imageAspect=0;image=data:image/svg+xml,PHN2ZyB4bWxuczp4bGluaz0iaHR0cDovL3d3dy53My5vcmcvMTk5OS94bGluayIgeG1sbnM9Imh0dHA6Ly93d3cudzMub3JnLzIwMDAvc3ZnIiB2ZXJzaW9uPSIxLjEiIHZpZXdCb3g9IjAgMCAyNCAyNCIgaGVpZ2h0PSIyNHB4IiB3aWR0aD0iMjRweCI+JiN4YTsgICAgJiN4YTsgICAgPHRpdGxlPkljb24tQXJjaGl0ZWN0dXJlLzE2L0FyY2hfQW1hem9uLVMzLVN0YW5kYXJkXzE2PC90aXRsZT4mI3hhOyAgICA8ZGVzYz5DcmVhdGVkIHdpdGggU2tldGNoLjwvZGVzYz4mI3hhOyAgICA8ZGVmcz4mI3hhOyAgICAgICAgPGxpbmVhckdyYWRpZW50IGlkPSJsaW5lYXJHcmFkaWVudC0xIiB5Mj0iMCUiIHgyPSIxMDAlIiB5MT0iMTAwJSIgeDE9IjAlIj4mI3hhOyAgICAgICAgICAgIDxzdG9wIG9mZnNldD0iMCUiIHN0b3AtY29sb3I9IiMxQjY2MEYiLz4mI3hhOyAgICAgICAgICAgIDxzdG9wIG9mZnNldD0iMTAwJSIgc3RvcC1jb2xvcj0iIzZDQUUzRSIvPiYjeGE7ICAgICAgICA8L2xpbmVhckdyYWRpZW50PiYjeGE7ICAgIDwvZGVmcz4mI3hhOyAgICA8ZyBmaWxsLXJ1bGU9ImV2ZW5vZGQiIGZpbGw9Im5vbmUiIHN0cm9rZS13aWR0aD0iMSIgc3Ryb2tlPSJub25lIiBpZD0iSWNvbi1BcmNoaXRlY3R1cmUvMTYvQXJjaF9BbWF6b24tUzMtU3RhbmRhcmRfMTYiPiYjeGE7ICAgICAgICA8ZyBmaWxsPSJ1cmwoI2xpbmVhckdyYWRpZW50LTEpIiBpZD0iSWNvbi1BcmNoaXRlY3R1cmUtQkcvMTYvU3RvcmFnZSI+JiN4YTsgICAgICAgICAgICA8cmVjdCBoZWlnaHQ9IjI0IiB3aWR0aD0iMjQiIHk9IjAiIHg9IjAiIGlkPSJSZWN0YW5nbGUiLz4mI3hhOyAgICAgICAgPC9nPiYjeGE7ICAgICAgICA8cGF0aCBmaWxsPSIjRkZGRkZGIiBpZD0iQW1hem9uLVMzLVN0YW5kYXJkLUljb25fMTZfU3F1aWQiIGQ9Ik0xOC4xNTg5NDk1LDEzLjM1MzU3MTkgTDE4LjE4NjM2NTcsMTMuMTg3ODk1NiBDMTguMzQ4ODMyMiwxMy4yODA5MDY5IDE4LjQ4MTg1MTYsMTMuMzY0MjI5NCAxOC41ODY0MzkzLDEzLjQzMzk4NzkgQzE4LjQ2NzYzNTgsMTMuNDE1NTc5NCAxOC4zMjA0MDA2LDEzLjM4NzQ4MjIgMTguMTU4OTQ5NSwxMy4zNTM1NzE5IEwxOC4xNTg5NDk1LDEzLjM1MzU3MTkgWiBNMTEuOTIwMjM4NiwxMS43OTU2MzM2IEMxMS45MjAyMzg2LDEyLjA2MjA3MjEgMTEuNjkyNzg1NSwxMi4yODAwNjcyIDExLjQxMjUzMSwxMi4yODAwNjcyIEMxMS4xMzMyOTE4LDEyLjI4MDA2NzIgMTAuOTA0ODIzNCwxMi4wNjIwNzIxIDEwLjkwNDgyMzQsMTEuNzk1NjMzNiBDMTAuOTA0ODIzNCwxMS41MjgyMjYzIDExLjEzMzI5MTgsMTEuMzExMjAwMSAxMS40MTI1MzEsMTEuMzExMjAwMSBDMTEuNjkyNzg1NSwxMS4zMTEyMDAxIDExLjkyMDIzODYsMTEuNTI4MjI2MyAxMS45MjAyMzg2LDExLjc5NTYzMzYgTDExLjkyMDIzODYsMTEuNzk1NjMzNiBaIE0xNi4zMzgzMTAxLDE4LjE2NjkwMzUgQzE2LjI1MTk5OTgsMTguMjE0Mzc4IDE2LjA2NDE0OCwxOC4yODEyMjk4IDE1LjkwNjc1ODYsMTguMzM4MzkzIEwxNS42NDE3MzUzLDE4LjQzNTI3OTcgQzE1LjM3MDYxOTQsMTguNTM3MDEwNyAxNS4wNDg3MzI4LDE4LjYyOTA1MzEgMTQuNjgxMTUyNSwxOC43MDg1MDAyIEMxMy43NjExODYzLDE4LjkxMDk5MzQgMTIuNDg3ODU1NiwxOS4wMzExMzI5IDExLjI3NzQ4MDcsMTkuMDMxMTMyOSBDNy40Nzg4MTI0NywxOS4wMzExMzI5IDYuNTE2MTk4ODYsMTguNDAzMzA3MSA2LjQ4MTY3NDc1LDE4LjE5ODg3NjEgTDUuMjEwMzc0OTIsOC44MzQ3NzU4NyBDNi42MjY4NzkxMiw5LjUyOTQ1MzU2IDkuMDc1MDQ1MTYsOS44NTc4OTk1IDExLjQxMjUzMSw5Ljg1Nzg5OTUgQzEzLjUxMTM5NDIsOS44NTc4OTk1IDE2LjI5NTY2MjYsOS41NjA0NTczMSAxNy44ODM3NzIsOC44MTkyNzQgTDE3LjE3NjAyNzYsMTMuMTAwNjk3NiBDMTUuNjkyNTA2LDEyLjY2NTY3NjMgMTMuOTIzNjUyNywxMS44ODE4NjI4IDEyLjg3MjY5OCwxMS40MDIyNzM2IEMxMi42OTA5Mzg3LDEwLjc5MTg4NzQgMTIuMTA5MTA1OCwxMC4zNDIzMzMgMTEuNDEyNTMxLDEwLjM0MjMzMyBDMTAuNTcyNzgyNiwxMC4zNDIzMzMgOS44ODk0MDgxNSwxMC45OTM0MTE3IDkuODg5NDA4MTUsMTEuNzk1NjMzNiBDOS44ODk0MDgxNSwxMi41OTY4ODY3IDEwLjU3Mjc4MjYsMTMuMjQ4OTM0MiAxMS40MTI1MzEsMTMuMjQ4OTM0MiBDMTIuMDEyNjQxMywxMy4yNDg5MzQyIDEyLjUyNzQ1NjgsMTIuOTEyNzM3NCAxMi43NzYyMzM2LDEyLjQzMTIxMDQgQzEzLjkwNjM5MDcsMTIuOTQwODM0NSAxNS41ODY5MDI4LDEzLjY2MzYwOTQgMTcuMDE1NTkyLDE0LjA2NzYyNjkgTDE2LjMzODMxMDEsMTguMTY2OTAzNSBaIE0xMS40MTI1MzEsNS45Njg4NjcwNyBDMTUuNzQ0MjkyMiw1Ljk2ODg2NzA3IDE4LjA4Nzg3MDUsNi45OTE5OTA3IDE4LjExNTI4NjcsNy40MjAyMjk5NCBMMTguMTExMjI1LDcuNDQzNDgyNzUgQzE4LjA2MjQ4NTEsNy44NzU1OTc0NyAxNS43MjQ5OTkzLDguODg5MDMyNDIgMTEuNDEyNTMxLDguODg5MDMyNDIgQzcuMzA0MTYxMDYsOC44ODkwMzI0MiA1LjA1NDAwMDk4LDcuOTM5NTQyNjkgNS4wMjE1MDc2OSw3LjQ0MDU3NjE1IEw1LjAxOTQ3Njg2LDcuNDIxMTk4ODEgQzUuMDM3NzU0MzMsNi45MjQxNyA3LjI5MDk2MDY2LDUuOTY4ODY3MDcgMTEuNDEyNTMxLDUuOTY4ODY3MDcgTDExLjQxMjUzMSw1Ljk2ODg2NzA3IFogTTE4LjM1Njk1NTUsMTIuMTYwODk2NSBMMTkuMTI5Njg2NSw3LjUwNDUyMTM4IEwxOS4xMjk2ODY1LDcuNTAzNTUyNTEgQzE5LjEzMTcxNzMsNy40NzgzNjE5NyAxOS4xMzU3NzksNy40NTUxMDkxNiAxOS4xMzU3NzksNy40Mjg5NDk3NSBDMTkuMTM1Nzc5LDUuNjQ2MjM0MzQgMTQuNTE3NjcwNiw1IDExLjQxMjUzMSw1IEM3Ljg0MjMzMTExLDUgNCw1Ljc2MDU2MDY1IDQsNy40Mjg5NDk3NSBDNCw3LjQ1MDI2NDgyIDQuMDAzMDQ2MjUsNy40NzA2MTEwMyA0LjAwNDA2MTY2LDcuNDkwOTU3MjQgTDUuNDc3NDI5MTEsMTguMzM5MzYxOCBDNS41NDc0OTI3NiwxOC43NTAxNjE1IDUuNzYwNzI5OTUsMjAgMTEuMjc3NDgwNywyMCBDMTIuNTU5OTUwMSwyMCAxMy45MTc1NjAyLDE5Ljg3MTE0MDcgMTQuOTA4NjA1NSwxOS42NTMxNDU2IEMxNS4zMjM5MTAzLDE5LjU2MjA3MjEgMTUuNjk1NTUyMywxOS40NTU0OTY3IDE2LjAxMzM3NzIsMTkuMzM2MzI2MSBMMTYuMjY2MjE1NiwxOS4yNDQyODM3IEMxNi43OTMyMTYxLDE5LjA1NDM4NTcgMTcuMzM3NDc4NiwxOC44NTg2NzQ2IDE3LjMzMjQwMTYsMTguMzM3NDI0MSBMMTguMDAwNTQ0OCwxNC4zMTE3ODE0IEMxOC40NTQ0MzU0LDE0LjQwNTc2MTUgMTguODAxNzA3NCwxNC40NDkzNjA1IDE5LjA1MjUxNDksMTQuNDQ5MzYwNSBDMTkuNTIxNjM2NywxNC40NDkzNjA1IDE5LjcwMDM0OTgsMTQuMzE4NTYzNSAxOS44MjQyMzA1LDE0LjE3ODA3NzggQzE5Ljk3MjQ4MTEsMTQuMDA5NDk0OSAyMC4wMjkzNDQzLDEzLjc5NzMxMyAxOS45ODU2ODE1LDEzLjU4MDI4NjggQzE5Ljg5NzM0MDQsMTMuMTQ4MTcyMSAxOS40MjgyMTg1LDEyLjczNTQzNDcgMTguMzU2OTU1NSwxMi4xNjA4OTY1IEwxOC4zNTY5NTU1LDEyLjE2MDg5NjUgWiIvPiYjeGE7ICAgIDwvZz4mI3hhOzwvc3ZnPg==;" parent="1" vertex="1">
          <mxGeometry x="-240" y="186.5" width="70" height="70" as="geometry" />
        </mxCell>
        <mxCell id="l6PxVcJ_XqyfcJT1N-ba-7" value="Intance 2" style="shape=image;verticalLabelPosition=bottom;labelBackgroundColor=default;verticalAlign=top;aspect=fixed;imageAspect=0;image=data:image/svg+xml,PHN2ZyB4bWxuczp4bGluaz0iaHR0cDovL3d3dy53My5vcmcvMTk5OS94bGluayIgeG1sbnM9Imh0dHA6Ly93d3cudzMub3JnLzIwMDAvc3ZnIiB2ZXJzaW9uPSIxLjEiIHZpZXdCb3g9IjAgMCAyNCAyNCIgaGVpZ2h0PSIyNHB4IiB3aWR0aD0iMjRweCI+JiN4YTsgICAgJiN4YTsgICAgPHRpdGxlPkljb24tQXJjaGl0ZWN0dXJlLzE2L0FyY2hfQW1hem9uLUVDMl8xNjwvdGl0bGU+JiN4YTsgICAgPGRlc2M+Q3JlYXRlZCB3aXRoIFNrZXRjaC48L2Rlc2M+JiN4YTsgICAgPGRlZnM+JiN4YTsgICAgICAgIDxsaW5lYXJHcmFkaWVudCBpZD0ibGluZWFyR3JhZGllbnQtMSIgeTI9IjAlIiB4Mj0iMTAwJSIgeTE9IjEwMCUiIHgxPSIwJSI+JiN4YTsgICAgICAgICAgICA8c3RvcCBvZmZzZXQ9IjAlIiBzdG9wLWNvbG9yPSIjQzg1MTFCIi8+JiN4YTsgICAgICAgICAgICA8c3RvcCBvZmZzZXQ9IjEwMCUiIHN0b3AtY29sb3I9IiNGRjk5MDAiLz4mI3hhOyAgICAgICAgPC9saW5lYXJHcmFkaWVudD4mI3hhOyAgICA8L2RlZnM+JiN4YTsgICAgPGcgZmlsbC1ydWxlPSJldmVub2RkIiBmaWxsPSJub25lIiBzdHJva2Utd2lkdGg9IjEiIHN0cm9rZT0ibm9uZSIgaWQ9Ikljb24tQXJjaGl0ZWN0dXJlLzE2L0FyY2hfQW1hem9uLUVDMl8xNiI+JiN4YTsgICAgICAgIDxnIGZpbGw9InVybCgjbGluZWFyR3JhZGllbnQtMSkiIGlkPSJJY29uLUFyY2hpdGVjdHVyZS1CRy8xNi9Db21wdXRlIj4mI3hhOyAgICAgICAgICAgIDxyZWN0IGhlaWdodD0iMjQiIHdpZHRoPSIyNCIgeT0iMCIgeD0iMCIgaWQ9IlJlY3RhbmdsZSIvPiYjeGE7ICAgICAgICA8L2c+JiN4YTsgICAgICAgIDxwYXRoIGZpbGw9IiNGRkZGRkYiIGlkPSJBbWF6b24tRUMyX0ljb25fMTZfU3F1aWQiIGQ9Ik0xNSw5IEwxNCw5IEwxMyw5IEwxMiw5IEwxMSw5IEwxMCw5IEwxMCwxMCBMMTAsMTEgTDEwLDEyIEwxMCwxMyBMMTAsMTQgTDExLDE0IEwxMiwxNCBMMTMsMTQgTDE0LDE0IEwxNSwxNCBMMTUsMTMgTDE1LDEyIEwxNSwxMSBMMTUsMTAgTDE1LDkgWiBNMTYsOSBMMTcsOSBMMTcsMTAgTDE2LDEwIEwxNiwxMSBMMTcsMTEgTDE3LDEyIEwxNiwxMiBMMTYsMTMgTDE3LDEzIEwxNywxNCBMMTYsMTQgTDE2LDE0LjMwOCBDMTYsMTQuNjg5IDE1LjY4OSwxNSAxNS4zMDgsMTUgTDE1LDE1IEwxNSwxNiBMMTQsMTYgTDE0LDE1IEwxMywxNSBMMTMsMTYgTDEyLDE2IEwxMiwxNSBMMTEsMTUgTDExLDE2IEwxMCwxNiBMMTAsMTUgTDkuNjkyLDE1IEM5LjMxMSwxNSA5LDE0LjY4OSA5LDE0LjMwOCBMOSwxNCBMOCwxNCBMOCwxMyBMOSwxMyBMOSwxMiBMOCwxMiBMOCwxMSBMOSwxMSBMOSwxMCBMOCwxMCBMOCw5IEw5LDkgTDksOC42OTIgQzksOC4zMTEgOS4zMTEsOCA5LjY5Miw4IEwxMCw4IEwxMCw3IEwxMSw3IEwxMSw4IEwxMiw4IEwxMiw3IEwxMyw3IEwxMyw4IEwxNCw4IEwxNCw3IEwxNSw3IEwxNSw4IEwxNS4zMDgsOCBDMTUuNjg5LDggMTYsOC4zMTEgMTYsOC42OTIgTDE2LDkgWiBNMTIsMTkgTDUsMTkgTDUsMTMgTDcsMTMgTDcsMTIgTDQuOCwxMiBDNC4zNTgsMTIgNCwxMi4zNDIgNCwxMi43NjIgTDQsMTkuMjE5IEM0LDE5LjY1IDQuMzUxLDIwIDQuNzgxLDIwIEwxMi4yLDIwIEMxMi42NDIsMjAgMTMsMTkuNjU4IDEzLDE5LjIzOCBMMTMsMTcgTDEyLDE3IEwxMiwxOSBaIE0yMCw0Ljc4MSBMMjAsMTIuMjE5IEMyMCwxMi42NSAxOS42NDksMTMgMTkuMjE5LDEzIEwxOCwxMyBMMTgsMTIgTDE5LDEyIEwxOSw1IEwxMiw1IEwxMiw2IEwxMSw2IEwxMSw0Ljc4MSBDMTEsNC4zNSAxMS4zNTEsNCAxMS43ODEsNCBMMTkuMjE5LDQgQzE5LjY0OSw0IDIwLDQuMzUgMjAsNC43ODEgTDIwLDQuNzgxIFoiLz4mI3hhOyAgICA8L2c+JiN4YTs8L3N2Zz4=;" parent="1" vertex="1">
          <mxGeometry x="-540" y="175" width="50" height="50" as="geometry" />
        </mxCell>
        <mxCell id="l6PxVcJ_XqyfcJT1N-ba-13" value="Instance 1" style="shape=image;verticalLabelPosition=bottom;labelBackgroundColor=default;verticalAlign=top;aspect=fixed;imageAspect=0;image=data:image/svg+xml,PHN2ZyB4bWxuczp4bGluaz0iaHR0cDovL3d3dy53My5vcmcvMTk5OS94bGluayIgeG1sbnM9Imh0dHA6Ly93d3cudzMub3JnLzIwMDAvc3ZnIiB2ZXJzaW9uPSIxLjEiIHZpZXdCb3g9IjAgMCAyNCAyNCIgaGVpZ2h0PSIyNHB4IiB3aWR0aD0iMjRweCI+JiN4YTsgICAgJiN4YTsgICAgPHRpdGxlPkljb24tQXJjaGl0ZWN0dXJlLzE2L0FyY2hfQW1hem9uLUVDMl8xNjwvdGl0bGU+JiN4YTsgICAgPGRlc2M+Q3JlYXRlZCB3aXRoIFNrZXRjaC48L2Rlc2M+JiN4YTsgICAgPGRlZnM+JiN4YTsgICAgICAgIDxsaW5lYXJHcmFkaWVudCBpZD0ibGluZWFyR3JhZGllbnQtMSIgeTI9IjAlIiB4Mj0iMTAwJSIgeTE9IjEwMCUiIHgxPSIwJSI+JiN4YTsgICAgICAgICAgICA8c3RvcCBvZmZzZXQ9IjAlIiBzdG9wLWNvbG9yPSIjQzg1MTFCIi8+JiN4YTsgICAgICAgICAgICA8c3RvcCBvZmZzZXQ9IjEwMCUiIHN0b3AtY29sb3I9IiNGRjk5MDAiLz4mI3hhOyAgICAgICAgPC9saW5lYXJHcmFkaWVudD4mI3hhOyAgICA8L2RlZnM+JiN4YTsgICAgPGcgZmlsbC1ydWxlPSJldmVub2RkIiBmaWxsPSJub25lIiBzdHJva2Utd2lkdGg9IjEiIHN0cm9rZT0ibm9uZSIgaWQ9Ikljb24tQXJjaGl0ZWN0dXJlLzE2L0FyY2hfQW1hem9uLUVDMl8xNiI+JiN4YTsgICAgICAgIDxnIGZpbGw9InVybCgjbGluZWFyR3JhZGllbnQtMSkiIGlkPSJJY29uLUFyY2hpdGVjdHVyZS1CRy8xNi9Db21wdXRlIj4mI3hhOyAgICAgICAgICAgIDxyZWN0IGhlaWdodD0iMjQiIHdpZHRoPSIyNCIgeT0iMCIgeD0iMCIgaWQ9IlJlY3RhbmdsZSIvPiYjeGE7ICAgICAgICA8L2c+JiN4YTsgICAgICAgIDxwYXRoIGZpbGw9IiNGRkZGRkYiIGlkPSJBbWF6b24tRUMyX0ljb25fMTZfU3F1aWQiIGQ9Ik0xNSw5IEwxNCw5IEwxMyw5IEwxMiw5IEwxMSw5IEwxMCw5IEwxMCwxMCBMMTAsMTEgTDEwLDEyIEwxMCwxMyBMMTAsMTQgTDExLDE0IEwxMiwxNCBMMTMsMTQgTDE0LDE0IEwxNSwxNCBMMTUsMTMgTDE1LDEyIEwxNSwxMSBMMTUsMTAgTDE1LDkgWiBNMTYsOSBMMTcsOSBMMTcsMTAgTDE2LDEwIEwxNiwxMSBMMTcsMTEgTDE3LDEyIEwxNiwxMiBMMTYsMTMgTDE3LDEzIEwxNywxNCBMMTYsMTQgTDE2LDE0LjMwOCBDMTYsMTQuNjg5IDE1LjY4OSwxNSAxNS4zMDgsMTUgTDE1LDE1IEwxNSwxNiBMMTQsMTYgTDE0LDE1IEwxMywxNSBMMTMsMTYgTDEyLDE2IEwxMiwxNSBMMTEsMTUgTDExLDE2IEwxMCwxNiBMMTAsMTUgTDkuNjkyLDE1IEM5LjMxMSwxNSA5LDE0LjY4OSA5LDE0LjMwOCBMOSwxNCBMOCwxNCBMOCwxMyBMOSwxMyBMOSwxMiBMOCwxMiBMOCwxMSBMOSwxMSBMOSwxMCBMOCwxMCBMOCw5IEw5LDkgTDksOC42OTIgQzksOC4zMTEgOS4zMTEsOCA5LjY5Miw4IEwxMCw4IEwxMCw3IEwxMSw3IEwxMSw4IEwxMiw4IEwxMiw3IEwxMyw3IEwxMyw4IEwxNCw4IEwxNCw3IEwxNSw3IEwxNSw4IEwxNS4zMDgsOCBDMTUuNjg5LDggMTYsOC4zMTEgMTYsOC42OTIgTDE2LDkgWiBNMTIsMTkgTDUsMTkgTDUsMTMgTDcsMTMgTDcsMTIgTDQuOCwxMiBDNC4zNTgsMTIgNCwxMi4zNDIgNCwxMi43NjIgTDQsMTkuMjE5IEM0LDE5LjY1IDQuMzUxLDIwIDQuNzgxLDIwIEwxMi4yLDIwIEMxMi42NDIsMjAgMTMsMTkuNjU4IDEzLDE5LjIzOCBMMTMsMTcgTDEyLDE3IEwxMiwxOSBaIE0yMCw0Ljc4MSBMMjAsMTIuMjE5IEMyMCwxMi42NSAxOS42NDksMTMgMTkuMjE5LDEzIEwxOCwxMyBMMTgsMTIgTDE5LDEyIEwxOSw1IEwxMiw1IEwxMiw2IEwxMSw2IEwxMSw0Ljc4MSBDMTEsNC4zNSAxMS4zNTEsNCAxMS43ODEsNCBMMTkuMjE5LDQgQzE5LjY0OSw0IDIwLDQuMzUgMjAsNC43ODEgTDIwLDQuNzgxIFoiLz4mI3hhOyAgICA8L2c+JiN4YTs8L3N2Zz4=;" parent="1" vertex="1">
          <mxGeometry x="-540" y="90" width="50" height="50" as="geometry" />
        </mxCell>
        <mxCell id="l6PxVcJ_XqyfcJT1N-ba-18" value="" style="endArrow=none;html=1;rounded=0;exitX=1;exitY=0.5;exitDx=0;exitDy=0;exitPerimeter=0;entryX=0;entryY=0.5;entryDx=0;entryDy=0;" parent="1" source="l6PxVcJ_XqyfcJT1N-ba-4" target="l6PxVcJ_XqyfcJT1N-ba-13" edge="1">
          <mxGeometry width="50" height="50" relative="1" as="geometry">
            <mxPoint x="-420" y="510" as="sourcePoint" />
            <mxPoint x="-370" y="460" as="targetPoint" />
          </mxGeometry>
        </mxCell>
        <mxCell id="l6PxVcJ_XqyfcJT1N-ba-19" value="" style="group" parent="1" vertex="1" connectable="0">
          <mxGeometry x="-640" y="250" width="300" height="300" as="geometry" />
        </mxCell>
        <mxCell id="l6PxVcJ_XqyfcJT1N-ba-5" value="&lt;font style=&quot;font-size: 18px;&quot;&gt;Auto Scaling&lt;/font&gt;" style="ellipse;shape=cloud;whiteSpace=wrap;html=1;" parent="l6PxVcJ_XqyfcJT1N-ba-19" vertex="1">
          <mxGeometry width="300" height="300" as="geometry" />
        </mxCell>
        <mxCell id="l6PxVcJ_XqyfcJT1N-ba-15" value="" style="shape=image;verticalLabelPosition=bottom;labelBackgroundColor=default;verticalAlign=top;aspect=fixed;imageAspect=0;image=data:image/svg+xml,PHN2ZyB4bWxuczp4bGluaz0iaHR0cDovL3d3dy53My5vcmcvMTk5OS94bGluayIgeG1sbnM9Imh0dHA6Ly93d3cudzMub3JnLzIwMDAvc3ZnIiB2ZXJzaW9uPSIxLjEiIHZpZXdCb3g9IjAgMCAyNCAyNCIgaGVpZ2h0PSIyNHB4IiB3aWR0aD0iMjRweCI+JiN4YTsgICAgJiN4YTsgICAgPHRpdGxlPkljb24tQXJjaGl0ZWN0dXJlLzE2L0FyY2hfQW1hem9uLUVDMl8xNjwvdGl0bGU+JiN4YTsgICAgPGRlc2M+Q3JlYXRlZCB3aXRoIFNrZXRjaC48L2Rlc2M+JiN4YTsgICAgPGRlZnM+JiN4YTsgICAgICAgIDxsaW5lYXJHcmFkaWVudCBpZD0ibGluZWFyR3JhZGllbnQtMSIgeTI9IjAlIiB4Mj0iMTAwJSIgeTE9IjEwMCUiIHgxPSIwJSI+JiN4YTsgICAgICAgICAgICA8c3RvcCBvZmZzZXQ9IjAlIiBzdG9wLWNvbG9yPSIjQzg1MTFCIi8+JiN4YTsgICAgICAgICAgICA8c3RvcCBvZmZzZXQ9IjEwMCUiIHN0b3AtY29sb3I9IiNGRjk5MDAiLz4mI3hhOyAgICAgICAgPC9saW5lYXJHcmFkaWVudD4mI3hhOyAgICA8L2RlZnM+JiN4YTsgICAgPGcgZmlsbC1ydWxlPSJldmVub2RkIiBmaWxsPSJub25lIiBzdHJva2Utd2lkdGg9IjEiIHN0cm9rZT0ibm9uZSIgaWQ9Ikljb24tQXJjaGl0ZWN0dXJlLzE2L0FyY2hfQW1hem9uLUVDMl8xNiI+JiN4YTsgICAgICAgIDxnIGZpbGw9InVybCgjbGluZWFyR3JhZGllbnQtMSkiIGlkPSJJY29uLUFyY2hpdGVjdHVyZS1CRy8xNi9Db21wdXRlIj4mI3hhOyAgICAgICAgICAgIDxyZWN0IGhlaWdodD0iMjQiIHdpZHRoPSIyNCIgeT0iMCIgeD0iMCIgaWQ9IlJlY3RhbmdsZSIvPiYjeGE7ICAgICAgICA8L2c+JiN4YTsgICAgICAgIDxwYXRoIGZpbGw9IiNGRkZGRkYiIGlkPSJBbWF6b24tRUMyX0ljb25fMTZfU3F1aWQiIGQ9Ik0xNSw5IEwxNCw5IEwxMyw5IEwxMiw5IEwxMSw5IEwxMCw5IEwxMCwxMCBMMTAsMTEgTDEwLDEyIEwxMCwxMyBMMTAsMTQgTDExLDE0IEwxMiwxNCBMMTMsMTQgTDE0LDE0IEwxNSwxNCBMMTUsMTMgTDE1LDEyIEwxNSwxMSBMMTUsMTAgTDE1LDkgWiBNMTYsOSBMMTcsOSBMMTcsMTAgTDE2LDEwIEwxNiwxMSBMMTcsMTEgTDE3LDEyIEwxNiwxMiBMMTYsMTMgTDE3LDEzIEwxNywxNCBMMTYsMTQgTDE2LDE0LjMwOCBDMTYsMTQuNjg5IDE1LjY4OSwxNSAxNS4zMDgsMTUgTDE1LDE1IEwxNSwxNiBMMTQsMTYgTDE0LDE1IEwxMywxNSBMMTMsMTYgTDEyLDE2IEwxMiwxNSBMMTEsMTUgTDExLDE2IEwxMCwxNiBMMTAsMTUgTDkuNjkyLDE1IEM5LjMxMSwxNSA5LDE0LjY4OSA5LDE0LjMwOCBMOSwxNCBMOCwxNCBMOCwxMyBMOSwxMyBMOSwxMiBMOCwxMiBMOCwxMSBMOSwxMSBMOSwxMCBMOCwxMCBMOCw5IEw5LDkgTDksOC42OTIgQzksOC4zMTEgOS4zMTEsOCA5LjY5Miw4IEwxMCw4IEwxMCw3IEwxMSw3IEwxMSw4IEwxMiw4IEwxMiw3IEwxMyw3IEwxMyw4IEwxNCw4IEwxNCw3IEwxNSw3IEwxNSw4IEwxNS4zMDgsOCBDMTUuNjg5LDggMTYsOC4zMTEgMTYsOC42OTIgTDE2LDkgWiBNMTIsMTkgTDUsMTkgTDUsMTMgTDcsMTMgTDcsMTIgTDQuOCwxMiBDNC4zNTgsMTIgNCwxMi4zNDIgNCwxMi43NjIgTDQsMTkuMjE5IEM0LDE5LjY1IDQuMzUxLDIwIDQuNzgxLDIwIEwxMi4yLDIwIEMxMi42NDIsMjAgMTMsMTkuNjU4IDEzLDE5LjIzOCBMMTMsMTcgTDEyLDE3IEwxMiwxOSBaIE0yMCw0Ljc4MSBMMjAsMTIuMjE5IEMyMCwxMi42NSAxOS42NDksMTMgMTkuMjE5LDEzIEwxOCwxMyBMMTgsMTIgTDE5LDEyIEwxOSw1IEwxMiw1IEwxMiw2IEwxMSw2IEwxMSw0Ljc4MSBDMTEsNC4zNSAxMS4zNTEsNCAxMS43ODEsNCBMMTkuMjE5LDQgQzE5LjY0OSw0IDIwLDQuMzUgMjAsNC43ODEgTDIwLDQuNzgxIFoiLz4mI3hhOyAgICA8L2c+JiN4YTs8L3N2Zz4=;" parent="l6PxVcJ_XqyfcJT1N-ba-19" vertex="1">
          <mxGeometry x="140" y="180" width="50" height="50" as="geometry" />
        </mxCell>
        <mxCell id="l6PxVcJ_XqyfcJT1N-ba-16" value="" style="shape=image;verticalLabelPosition=bottom;labelBackgroundColor=default;verticalAlign=top;aspect=fixed;imageAspect=0;image=data:image/svg+xml,PHN2ZyB4bWxuczp4bGluaz0iaHR0cDovL3d3dy53My5vcmcvMTk5OS94bGluayIgeG1sbnM9Imh0dHA6Ly93d3cudzMub3JnLzIwMDAvc3ZnIiB2ZXJzaW9uPSIxLjEiIHZpZXdCb3g9IjAgMCAyNCAyNCIgaGVpZ2h0PSIyNHB4IiB3aWR0aD0iMjRweCI+JiN4YTsgICAgJiN4YTsgICAgPHRpdGxlPkljb24tQXJjaGl0ZWN0dXJlLzE2L0FyY2hfQW1hem9uLUVDMl8xNjwvdGl0bGU+JiN4YTsgICAgPGRlc2M+Q3JlYXRlZCB3aXRoIFNrZXRjaC48L2Rlc2M+JiN4YTsgICAgPGRlZnM+JiN4YTsgICAgICAgIDxsaW5lYXJHcmFkaWVudCBpZD0ibGluZWFyR3JhZGllbnQtMSIgeTI9IjAlIiB4Mj0iMTAwJSIgeTE9IjEwMCUiIHgxPSIwJSI+JiN4YTsgICAgICAgICAgICA8c3RvcCBvZmZzZXQ9IjAlIiBzdG9wLWNvbG9yPSIjQzg1MTFCIi8+JiN4YTsgICAgICAgICAgICA8c3RvcCBvZmZzZXQ9IjEwMCUiIHN0b3AtY29sb3I9IiNGRjk5MDAiLz4mI3hhOyAgICAgICAgPC9saW5lYXJHcmFkaWVudD4mI3hhOyAgICA8L2RlZnM+JiN4YTsgICAgPGcgZmlsbC1ydWxlPSJldmVub2RkIiBmaWxsPSJub25lIiBzdHJva2Utd2lkdGg9IjEiIHN0cm9rZT0ibm9uZSIgaWQ9Ikljb24tQXJjaGl0ZWN0dXJlLzE2L0FyY2hfQW1hem9uLUVDMl8xNiI+JiN4YTsgICAgICAgIDxnIGZpbGw9InVybCgjbGluZWFyR3JhZGllbnQtMSkiIGlkPSJJY29uLUFyY2hpdGVjdHVyZS1CRy8xNi9Db21wdXRlIj4mI3hhOyAgICAgICAgICAgIDxyZWN0IGhlaWdodD0iMjQiIHdpZHRoPSIyNCIgeT0iMCIgeD0iMCIgaWQ9IlJlY3RhbmdsZSIvPiYjeGE7ICAgICAgICA8L2c+JiN4YTsgICAgICAgIDxwYXRoIGZpbGw9IiNGRkZGRkYiIGlkPSJBbWF6b24tRUMyX0ljb25fMTZfU3F1aWQiIGQ9Ik0xNSw5IEwxNCw5IEwxMyw5IEwxMiw5IEwxMSw5IEwxMCw5IEwxMCwxMCBMMTAsMTEgTDEwLDEyIEwxMCwxMyBMMTAsMTQgTDExLDE0IEwxMiwxNCBMMTMsMTQgTDE0LDE0IEwxNSwxNCBMMTUsMTMgTDE1LDEyIEwxNSwxMSBMMTUsMTAgTDE1LDkgWiBNMTYsOSBMMTcsOSBMMTcsMTAgTDE2LDEwIEwxNiwxMSBMMTcsMTEgTDE3LDEyIEwxNiwxMiBMMTYsMTMgTDE3LDEzIEwxNywxNCBMMTYsMTQgTDE2LDE0LjMwOCBDMTYsMTQuNjg5IDE1LjY4OSwxNSAxNS4zMDgsMTUgTDE1LDE1IEwxNSwxNiBMMTQsMTYgTDE0LDE1IEwxMywxNSBMMTMsMTYgTDEyLDE2IEwxMiwxNSBMMTEsMTUgTDExLDE2IEwxMCwxNiBMMTAsMTUgTDkuNjkyLDE1IEM5LjMxMSwxNSA5LDE0LjY4OSA5LDE0LjMwOCBMOSwxNCBMOCwxNCBMOCwxMyBMOSwxMyBMOSwxMiBMOCwxMiBMOCwxMSBMOSwxMSBMOSwxMCBMOCwxMCBMOCw5IEw5LDkgTDksOC42OTIgQzksOC4zMTEgOS4zMTEsOCA5LjY5Miw4IEwxMCw4IEwxMCw3IEwxMSw3IEwxMSw4IEwxMiw4IEwxMiw3IEwxMyw3IEwxMyw4IEwxNCw4IEwxNCw3IEwxNSw3IEwxNSw4IEwxNS4zMDgsOCBDMTUuNjg5LDggMTYsOC4zMTEgMTYsOC42OTIgTDE2LDkgWiBNMTIsMTkgTDUsMTkgTDUsMTMgTDcsMTMgTDcsMTIgTDQuOCwxMiBDNC4zNTgsMTIgNCwxMi4zNDIgNCwxMi43NjIgTDQsMTkuMjE5IEM0LDE5LjY1IDQuMzUxLDIwIDQuNzgxLDIwIEwxMi4yLDIwIEMxMi42NDIsMjAgMTMsMTkuNjU4IDEzLDE5LjIzOCBMMTMsMTcgTDEyLDE3IEwxMiwxOSBaIE0yMCw0Ljc4MSBMMjAsMTIuMjE5IEMyMCwxMi42NSAxOS42NDksMTMgMTkuMjE5LDEzIEwxOCwxMyBMMTgsMTIgTDE5LDEyIEwxOSw1IEwxMiw1IEwxMiw2IEwxMSw2IEwxMSw0Ljc4MSBDMTEsNC4zNSAxMS4zNTEsNCAxMS43ODEsNCBMMTkuMjE5LDQgQzE5LjY0OSw0IDIwLDQuMzUgMjAsNC43ODEgTDIwLDQuNzgxIFoiLz4mI3hhOyAgICA8L2c+JiN4YTs8L3N2Zz4=;" parent="l6PxVcJ_XqyfcJT1N-ba-19" vertex="1">
          <mxGeometry x="110" y="160" width="50" height="50" as="geometry" />
        </mxCell>
        <mxCell id="l6PxVcJ_XqyfcJT1N-ba-27" value="&lt;font style=&quot;font-size: 18px;&quot;&gt;Instances&lt;/font&gt;" style="text;strokeColor=none;align=center;fillColor=none;html=1;verticalAlign=middle;whiteSpace=wrap;rounded=0;" parent="l6PxVcJ_XqyfcJT1N-ba-19" vertex="1">
          <mxGeometry x="103" y="230" width="110" height="30" as="geometry" />
        </mxCell>
        <mxCell id="l6PxVcJ_XqyfcJT1N-ba-20" value="" style="endArrow=none;html=1;rounded=0;exitX=1;exitY=0.5;exitDx=0;exitDy=0;exitPerimeter=0;entryX=0;entryY=0.5;entryDx=0;entryDy=0;" parent="1" source="l6PxVcJ_XqyfcJT1N-ba-4" target="l6PxVcJ_XqyfcJT1N-ba-7" edge="1">
          <mxGeometry width="50" height="50" relative="1" as="geometry">
            <mxPoint x="-420" y="510" as="sourcePoint" />
            <mxPoint x="-370" y="460" as="targetPoint" />
          </mxGeometry>
        </mxCell>
        <mxCell id="l6PxVcJ_XqyfcJT1N-ba-21" value="" style="endArrow=none;html=1;rounded=0;entryX=0.07;entryY=0.4;entryDx=0;entryDy=0;entryPerimeter=0;exitX=1;exitY=0.5;exitDx=0;exitDy=0;exitPerimeter=0;" parent="1" source="l6PxVcJ_XqyfcJT1N-ba-4" target="l6PxVcJ_XqyfcJT1N-ba-5" edge="1">
          <mxGeometry width="50" height="50" relative="1" as="geometry">
            <mxPoint x="-780" y="120" as="sourcePoint" />
            <mxPoint x="-480" y="200" as="targetPoint" />
          </mxGeometry>
        </mxCell>
      </root>
    </mxGraphModel>
  </diagram>
</mxfile>
